<svg xmlns="http://www.w3.org/2000/svg" width="1280" height="720" viewBox="0 0 1280 720">
  <rect width="1280" height="720" fill="#1a3d1a"/>
  <rect x="80" y="150" width="200" height="150" fill="#2d5a2d"/>
  <rect x="80" y="150" width="200" height="50" fill="#4a7a4a"/>
  <rect x="330" y="200" width="200" height="150" fill="#3d7a3d"/>
  <rect x="330" y="200" width="200" height="50" fill="#5a8a5a"/>
  <rect x="580" y="150" width="200" height="150" fill="#2d5a2d"/>
  <rect x="580" y="150" width="200" height="50" fill="#4a7a4a"/>
  <rect x="830" y="180" width="200" height="150" fill="#3d7a3d"/>
  <rect x="830" y="180" width="200" height="50" fill="#5a8a5a"/>
  <rect x="1080" y="220" width="120" height="80" fill="#4a6a4a"/>
  <rect x="1080" y="220" width="120" height="30" fill="#6a8a6a"/>
  <!-- Trees -->
  <circle cx="130" cy="280" r="20" fill="#1a4a1a"/>
  <circle cx="180" cy="270" r="25" fill="#1a4a1a"/>
  <circle cx="380" cy="330" r="20" fill="#1a4a1a"/>
  <circle cx="630" cy="280" r="20" fill="#1a4a1a"/>
  <circle cx="930" cy="310" r="20" fill="#1a4a1a"/>
  <!-- Stats UI -->
  <rect x="1000" y="400" width="200" height="250" fill="#1a2a1a" stroke="#4caf50" stroke-width="2" rx="5"/>
  <text x="1100" y="430" font-family="Arial" font-size="12" fill="#4caf50" text-anchor="middle">POPULATION</text>
  <text x="1100" y="470" font-family="Arial" font-size="24" fill="#fff" text-anchor="middle">12,450</text>
  <text x="1100" y="510" font-family="Arial" font-size="12" fill="#4caf50" text-anchor="middle">POLLUTION</text>
  <text x="1100" y="545" font-family="Arial" font-size="24" fill="#4caf50" text-anchor="middle">-15%</text>
  <text x="1100" y="580" font-family="Arial" font-size="12" fill="#4caf50" text-anchor="middle">HAPPINESS</text>
  <text x="1100" y="615" font-family="Arial" font-size="24" fill="#fff" text-anchor="middle">87%</text>
</svg>
